HIERARCHY
ROOT Hips
{
	OFFSET 0.000000 97.167313 0.000000
	CHANNELS 6 Xposition Yposition Zposition Xrotation Yrotation Zrotation
	JOINT Spine
	{
		OFFSET 0.000000 13.784798 0.064400
		CHANNELS 3 Xrotation Yrotation Zrotation
		JOINT Spine1
		{
			OFFSET 0.000000 12.037903 0.404700
			CHANNELS 3 Xrotation Yrotation Zrotation
			JOINT Spine2
			{
				OFFSET 0.000000 17.795601 0.420200
				CHANNELS 3 Xrotation Yrotation Zrotation
				JOINT Neck
				{
					OFFSET 0.000000 39.131302 11.954600
					CHANNELS 3 Xrotation Yrotation Zrotation
					JOINT Head
					{
						OFFSET 0.000000 14.456192 15.627699
						CHANNELS 3 Xrotation Yrotation Zrotation
						JOINT HeadTop_End
						{
							OFFSET 0.000000 15.703506 7.603401
							CHANNELS 3 Xrotation Yrotation Zrotation
							End Site
							{
								OFFSET 0.000000 17.447403 0.000000
							}
						}
					}
				}
				JOINT LeftShoulder
				{
					OFFSET 17.399500 24.608795 1.168800
					CHANNELS 3 Xrotation Yrotation Zrotation
					JOINT LeftArm
					{
						OFFSET 18.980635 5.765305 1.818600
						CHANNELS 3 Xrotation Yrotation Zrotation
						JOINT LeftForeArm
						{
							OFFSET 49.290169 0.000000 0.000000
							CHANNELS 3 Xrotation Yrotation Zrotation
							JOINT LeftHand
							{
								OFFSET 31.562012 0.000000 0.000000
								CHANNELS 3 Xrotation Yrotation Zrotation
								JOINT LeftHandThumb1
								{
									OFFSET 6.133995 -4.388519 7.076070
									CHANNELS 3 Xrotation Yrotation Zrotation
									JOINT LeftHandThumb2
									{
										OFFSET 6.037666 -3.485840 3.485847
										CHANNELS 3 Xrotation Yrotation Zrotation
										JOINT LeftHandThumb3
										{
											OFFSET 6.496506 -3.750763 3.750761
											CHANNELS 3 Xrotation Yrotation Zrotation
											JOINT LeftHandThumb4
											{
												OFFSET 5.616882 -3.242905 3.242910
												CHANNELS 3 Xrotation Yrotation Zrotation
												End Site
												{
													OFFSET -1.254608 7.132141 0.375429
												}
											}
										}
									}
								}
								JOINT LeftHandPinky1
								{
									OFFSET 18.920792 -0.453171 -11.426712
									CHANNELS 3 Xrotation Yrotation Zrotation
									JOINT LeftHandPinky2
									{
										OFFSET 4.919586 0.000000 0.000000
										CHANNELS 3 Xrotation Yrotation Zrotation
										JOINT LeftHandPinky3
										{
											OFFSET 5.233047 0.000000 0.000000
											CHANNELS 3 Xrotation Yrotation Zrotation
											JOINT LeftHandPinky4
											{
												OFFSET 5.571716 0.000000 0.000000
												CHANNELS 3 Xrotation Yrotation Zrotation
												End Site
												{
													OFFSET -3.459808 4.342407 -0.466164
												}
											}
										}
									}
								}
								JOINT LeftHandRing1
								{
									OFFSET 22.726120 -0.094986 -6.500475
									CHANNELS 3 Xrotation Yrotation Zrotation
									JOINT LeftHandRing2
									{
										OFFSET 6.408615 0.000000 0.000000
										CHANNELS 3 Xrotation Yrotation Zrotation
										JOINT LeftHandRing3
										{
											OFFSET 6.150223 0.000000 0.000000
											CHANNELS 3 Xrotation Yrotation Zrotation
											JOINT LeftHandRing4
											{
												OFFSET 6.145386 0.000000 0.000000
												CHANNELS 3 Xrotation Yrotation Zrotation
												End Site
												{
													OFFSET -3.671402 4.923981 -0.202372
												}
											}
										}
									}
								}
								JOINT LeftHandMiddle1
								{
									OFFSET 23.373947 0.000000 0.000001
									CHANNELS 3 Xrotation Yrotation Zrotation
									JOINT LeftHandMiddle2
									{
										OFFSET 6.996567 0.000000 0.000000
										CHANNELS 3 Xrotation Yrotation Zrotation
										JOINT LeftHandMiddle3
										{
											OFFSET 7.015945 0.000000 0.000000
											CHANNELS 3 Xrotation Yrotation Zrotation
											JOINT LeftHandMiddle4
											{
												OFFSET 7.721573 0.000000 0.000000
												CHANNELS 3 Xrotation Yrotation Zrotation
												End Site
												{
													OFFSET -4.651108 6.158463 0.251582
												}
											}
										}
									}
								}
								JOINT LeftHandIndex1
								{
									OFFSET 21.310577 -0.490082 6.209344
									CHANNELS 3 Xrotation Yrotation Zrotation
									JOINT LeftHandIndex2
									{
										OFFSET 7.536453 0.000000 0.000000
										CHANNELS 3 Xrotation Yrotation Zrotation
										JOINT LeftHandIndex3
										{
											OFFSET 7.512344 0.000000 0.000000
											CHANNELS 3 Xrotation Yrotation Zrotation
											JOINT LeftHandIndex4
											{
												OFFSET 10.212402 0.000000 0.000001
												CHANNELS 3 Xrotation Yrotation Zrotation
												End Site
												{
													OFFSET -5.180801 8.690506 1.388433
												}
											}
										}
									}
								}
							}
						}
					}
				}
				JOINT RightShoulder
				{
					OFFSET -17.399500 24.608795 1.168800
					CHANNELS 3 Xrotation Yrotation Zrotation
					JOINT RightArm
					{
						OFFSET -18.980635 5.765305 1.818600
						CHANNELS 3 Xrotation Yrotation Zrotation
						JOINT RightForeArm
						{
							OFFSET -49.290169 0.000000 0.000000
							CHANNELS 3 Xrotation Yrotation Zrotation
							JOINT RightHand
							{
								OFFSET -31.562012 0.000000 0.000000
								CHANNELS 3 Xrotation Yrotation Zrotation
								JOINT RightHandThumb1
								{
									OFFSET -6.133995 -4.388519 7.076070
									CHANNELS 3 Xrotation Yrotation Zrotation
									JOINT RightHandThumb2
									{
										OFFSET -6.037666 -3.485840 3.485847
										CHANNELS 3 Xrotation Yrotation Zrotation
										JOINT RightHandThumb3
										{
											OFFSET -6.496506 -3.750763 3.750761
											CHANNELS 3 Xrotation Yrotation Zrotation
											JOINT RightHandThumb4
											{
												OFFSET -5.616882 -3.242905 3.242910
												CHANNELS 3 Xrotation Yrotation Zrotation
												End Site
												{
													OFFSET 1.254608 7.132141 0.375429
												}
											}
										}
									}
								}
								JOINT RightHandIndex1
								{
									OFFSET -21.310577 -0.490082 6.209344
									CHANNELS 3 Xrotation Yrotation Zrotation
									JOINT RightHandIndex2
									{
										OFFSET -7.536453 0.000000 0.000000
										CHANNELS 3 Xrotation Yrotation Zrotation
										JOINT RightHandIndex3
										{
											OFFSET -7.512344 0.000000 0.000000
											CHANNELS 3 Xrotation Yrotation Zrotation
											JOINT RightHandIndex4
											{
												OFFSET -10.212402 0.000000 0.000001
												CHANNELS 3 Xrotation Yrotation Zrotation
												End Site
												{
													OFFSET 5.180801 8.690506 1.388433
												}
											}
										}
									}
								}
								JOINT RightHandMiddle1
								{
									OFFSET -23.373947 0.000000 0.000001
									CHANNELS 3 Xrotation Yrotation Zrotation
									JOINT RightHandMiddle2
									{
										OFFSET -6.996567 0.000000 0.000000
										CHANNELS 3 Xrotation Yrotation Zrotation
										JOINT RightHandMiddle3
										{
											OFFSET -7.015945 0.000000 0.000000
											CHANNELS 3 Xrotation Yrotation Zrotation
											JOINT RightHandMiddle4
											{
												OFFSET -7.721573 0.000000 0.000000
												CHANNELS 3 Xrotation Yrotation Zrotation
												End Site
												{
													OFFSET 4.651108 6.158463 0.251582
												}
											}
										}
									}
								}
								JOINT RightHandRing1
								{
									OFFSET -22.726120 -0.094986 -6.500475
									CHANNELS 3 Xrotation Yrotation Zrotation
									JOINT RightHandRing2
									{
										OFFSET -6.408615 0.000000 0.000000
										CHANNELS 3 Xrotation Yrotation Zrotation
										JOINT RightHandRing3
										{
											OFFSET -6.150223 0.000000 0.000000
											CHANNELS 3 Xrotation Yrotation Zrotation
											JOINT RightHandRing4
											{
												OFFSET -6.145386 0.000000 0.000000
												CHANNELS 3 Xrotation Yrotation Zrotation
												End Site
												{
													OFFSET 3.671402 4.923981 -0.202372
												}
											}
										}
									}
								}
								JOINT RightHandPinky1
								{
									OFFSET -18.920792 -0.453171 -11.426712
									CHANNELS 3 Xrotation Yrotation Zrotation
									JOINT RightHandPinky2
									{
										OFFSET -4.919586 0.000000 0.000000
										CHANNELS 3 Xrotation Yrotation Zrotation
										JOINT RightHandPinky3
										{
											OFFSET -5.233047 0.000000 0.000000
											CHANNELS 3 Xrotation Yrotation Zrotation
											JOINT RightHandPinky4
											{
												OFFSET -5.571716 0.000000 0.000000
												CHANNELS 3 Xrotation Yrotation Zrotation
												End Site
												{
													OFFSET 3.459808 4.342407 -0.466164
												}
											}
										}
									}
								}
							}
						}
					}
				}
			}
		}
	}
	JOINT LeftUpLeg
	{
		OFFSET 19.899099 -7.885101 -3.429500
		CHANNELS 3 Xrotation Yrotation Zrotation
		JOINT LeftLeg
		{
			OFFSET 1.745560 -36.997807 10.304700
			CHANNELS 3 Xrotation Yrotation Zrotation
			JOINT LeftFoot
			{
				OFFSET -1.745558 -29.803308 -13.615400
				CHANNELS 3 Xrotation Yrotation Zrotation
				JOINT LeftToeBase
				{
					OFFSET 1.181900 -18.539904 15.226099
					CHANNELS 3 Xrotation Yrotation Zrotation
					JOINT LeftToe_End
					{
						OFFSET -0.863701 1.402801 16.534700
						CHANNELS 3 Xrotation Yrotation Zrotation
						End Site
						{
							OFFSET 0.000000 16.616566 0.000000
						}
					}
				}
			}
		}
	}
	JOINT RightUpLeg
	{
		OFFSET -19.899099 -7.885101 -3.429500
		CHANNELS 3 Xrotation Yrotation Zrotation
		JOINT RightLeg
		{
			OFFSET -1.745560 -36.997807 10.304700
			CHANNELS 3 Xrotation Yrotation Zrotation
			JOINT RightFoot
			{
				OFFSET 1.745558 -29.803308 -13.615400
				CHANNELS 3 Xrotation Yrotation Zrotation
				JOINT RightToeBase
				{
					OFFSET -1.181900 -18.539904 15.226099
					CHANNELS 3 Xrotation Yrotation Zrotation
					JOINT RightToe_End
					{
						OFFSET 0.863701 1.402801 16.534700
						CHANNELS 3 Xrotation Yrotation Zrotation
						End Site
						{
							OFFSET 0.000000 16.616566 0.000000
						}
					}
				}
			}
		}
	}
}
MOTION
Frames: 4
Frame Time: 0.033333
-2.135780 68.342651 1.819365 0.102655 -35.485223 4.813844 10.488610 1.779229 -1.787943 5.124060 0.625382 2.507697 5.119722 0.648523 2.492812 3.300586 3.698923 -8.307728 -3.703732 25.449281 -13.774215 0.000001 -0.000000 0.000000 1.595837 -2.966756 -11.687699 -6.407280 -11.015134 -61.393688 -0.000004 -47.694822 -0.000039 26.486721 3.139405 3.228313 5.287207 4.723322 10.345969 13.306721 22.961452 -10.083421 5.478686 17.499650 -0.914148 -0.000004 0.000002 -0.000002 5.004801 7.245390 -52.174555 0.239740 -2.244940 -15.686429 1.447823 4.228826 -37.785269 0.000001 0.000000 -0.000002 2.583251 5.611776 -39.315549 0.572092 2.752528 -23.477611 0.000001 0.000002 -0.000003 -0.000001 -0.000001 0.000005 1.595991 4.747762 -27.470854 0.327792 2.103092 -17.715733 0.000007 0.000014 0.000002 0.000000 -0.000000 0.000004 0.382598 2.406731 -26.943730 0.632127 2.886701 -24.698196 0.000006 0.000001 -0.000012 -0.000000 -0.000000 -0.000001 3.664465 13.368983 3.877687 -0.697234 17.259693 51.610614 0.000012 35.834587 0.000006 -2.629553 6.097472 -11.178198 -10.573223 -2.969494 -12.131598 16.092272 -34.983280 2.590396 -2.890801 4.658951 -2.010794 -0.000001 -0.000001 0.000001 0.358074 -2.304362 24.662474 0.449087 -2.462716 20.665724 0.057313 -0.892804 7.346759 -0.000001 0.000002 0.000004 1.770881 -4.814492 32.304172 1.030601 -3.647862 31.542930 0.147658 -1.420976 11.747032 -0.000001 0.000002 -0.000002 5.271401 -7.498136 51.971763 1.234103 -3.959619 34.609672 0.366635 -2.230483 18.640307 -0.000000 0.000002 -0.000005 2.784589 -5.596052 57.925216 0.520534 -2.644213 22.269398 -0.000002 -0.000004 -0.000002 0.000000 0.000001 0.000006 -66.081773 6.063996 -2.267384 88.872024 4.865271 0.856179 -15.749720 -2.457558 5.381605 0.000001 0.000004 0.000003 -0.000000 -0.000003 0.000001 -8.870721 -5.337055 -21.197554 98.622946 -3.129510 4.296427 -47.355167 -11.545122 3.529399 -18.836622 -0.000002 0.000006 -0.000001 -0.000001 -0.000002 
-1.798810 68.054901 9.800408 0.249271 -35.631345 5.055299 10.702802 1.797803 -1.700545 5.210796 0.625815 2.514764 5.206906 0.645401 2.499475 3.250211 3.723199 -8.253457 -3.710116 25.490806 -14.084161 0.000001 -0.000000 -0.000000 1.596913 -2.974363 -11.647627 -6.674344 -11.002334 -61.702754 0.000032 -47.320623 0.000018 26.917888 3.219881 2.901922 5.286648 4.722001 10.355106 13.285388 22.920307 -10.070207 5.486656 17.516575 -0.918506 0.000006 -0.000004 -0.000000 5.004515 7.244404 -52.186822 0.239741 -2.244940 -15.686433 1.447825 4.228826 -37.785269 -0.000000 0.000001 -0.000004 2.582015 5.608646 -39.353258 0.572092 2.752528 -23.477607 0.000002 0.000002 -0.000001 -0.000001 0.000000 0.000002 1.600750 4.754497 -27.506458 0.327793 2.103091 -17.715730 0.000008 0.000014 -0.000004 0.000000 0.000000 0.000004 0.389099 2.420071 -26.961289 0.634556 2.891972 -24.746462 0.000006 0.000001 -0.000012 -0.000000 0.000000 -0.000002 3.677113 13.381633 3.909614 -1.736709 17.885002 51.231033 0.000003 34.186801 0.000011 -2.492481 6.738157 -11.339627 -10.590445 -2.929701 -12.133020 16.063630 -34.929632 2.580847 -2.937528 4.791416 -2.007933 -0.000000 0.000000 0.000001 0.380393 -2.353804 24.691351 0.448938 -2.462336 20.662372 0.057937 -0.897601 7.386442 0.000000 0.000000 0.000001 1.763216 -4.801636 32.323880 1.030106 -3.647049 31.535059 0.147898 -1.425713 11.785509 -0.000001 0.000000 -0.000008 5.253182 -7.486115 51.942629 1.232317 -3.957052 34.583867 0.384078 -2.282010 19.087363 -0.000002 0.000002 -0.000005 2.759551 -5.580218 57.908652 0.518540 -2.639366 22.226235 -0.000003 0.000001 0.000004 0.000002 0.000005 0.000003 -66.795118 6.097868 -2.354231 88.874319 4.535693 0.741228 -15.003385 -2.156593 4.904489 0.000002 0.000005 0.000004 -0.000000 -0.000000 0.000001 -9.204072 -5.177308 -21.593947 99.202644 -2.910361 4.476897 -47.711672 -11.333217 3.463127 -18.763933 0.000003 -0.000005 0.000000 -0.000000 -0.000001 
-1.479526 67.661957 17.910137 0.339014 -35.713956 5.389756 10.969144 1.781175 -1.602590 5.322139 0.603137 2.533427 5.318710 0.620221 2.518161 3.211181 3.730494 -8.202436 -3.709860 25.503576 -14.288128 -0.000001 -0.000000 0.000000 1.589822 -2.941019 -11.484978 -7.064023 -11.229383 -62.139258 0.000018 -46.565983 -0.000001 27.610089 3.112428 2.613899 5.296114 4.741966 10.362947 13.266994 22.884752 -10.058819 5.495635 17.535546 -0.923434 0.000000 0.000003 -0.000004 5.006730 7.246398 -52.182539 0.239739 -2.244935 -15.686433 1.447821 4.228828 -37.785276 0.000000 0.000001 -0.000000 2.584546 5.610702 -39.376454 0.572093 2.752529 -23.477614 0.000001 0.000003 0.000002 -0.000000 -0.000001 0.000001 1.602737 4.756536 -27.532878 0.327792 2.103092 -17.715731 0.000009 0.000015 0.000001 0.000000 -0.000000 0.000009 0.394581 2.430804 -26.957601 0.635543 2.894096 -24.765902 0.000005 0.000003 -0.000010 -0.000000 -0.000002 -0.000001 3.714717 13.482364 3.946291 -2.705888 18.302639 50.813841 0.000000 32.500181 0.000014 -2.323113 7.396024 -11.474565 -10.612256 -2.870238 -12.184350 15.996127 -34.802932 2.558714 -3.013061 5.005352 -2.002785 -0.000000 -0.000000 -0.000004 0.406688 -2.411963 24.729772 0.448936 -2.462334 20.662403 0.058560 -0.902404 7.426192 -0.000000 0.000000 -0.000001 1.751152 -4.782578 32.327156 1.028883 -3.645070 31.515924 0.148394 -1.427137 11.797741 0.000000 0.000002 -0.000001 5.227446 -7.468834 51.905394 1.228603 -3.951634 34.529769 0.409670 -2.353694 19.712957 -0.000000 -0.000001 -0.000007 2.733975 -5.564098 57.897307 0.517323 -2.636371 22.199725 -0.000002 -0.000000 0.000004 0.000000 0.000001 0.000006 -67.507923 6.230009 -2.440215 88.883629 4.198026 0.633679 -14.415971 -2.011264 4.442995 0.000002 0.000005 0.000002 0.000001 -0.000002 0.000001 -9.491925 -5.008874 -21.946412 99.971245 -2.735846 4.661759 -48.206358 -11.331071 3.259789 -18.676018 0.000022 0.000001 -0.000000 0.000002 -0.000001 
-1.225616 67.208801 26.079830 0.350481 -35.684354 5.724535 11.202571 1.723168 -1.496863 5.415390 0.553212 2.571164 5.412373 0.569647 2.556552 3.248614 3.718057 -8.162284 -3.541462 25.480594 -14.347967 -0.000001 -0.000000 -0.000000 1.577476 -2.886346 -11.218548 -7.460030 -11.580246 -62.685475 -0.000004 -45.554380 -0.000000 28.466536 2.829755 2.483126 5.312679 4.775113 10.357695 13.273410 22.897195 -10.062872 5.505938 17.557385 -0.929081 0.000006 -0.000001 0.000001 5.011710 7.250242 -52.182242 0.239740 -2.244942 -15.686429 1.447820 4.228826 -37.785269 0.000000 0.000001 -0.000004 2.593923 5.621648 -39.385934 0.572092 2.752530 -23.477609 0.000001 0.000003 -0.000001 -0.000000 0.000000 0.000003 1.609860 4.769058 -27.548422 0.327793 2.103091 -17.715735 0.000009 0.000013 -0.000004 0.000001 -0.000001 0.000009 0.399101 2.439188 -26.940112 0.634019 2.890804 -24.735846 0.000004 0.000003 -0.000008 -0.000001 0.000001 -0.000001 3.760615 13.613502 3.982067 -3.539238 18.432816 50.518077 0.000010 30.869692 0.000021 -2.196666 7.932741 -11.533885 -10.625117 -2.823000 -12.274941 15.906367 -34.633885 2.529570 -3.100290 5.252599 -1.996353 -0.000000 -0.000000 -0.000003 0.434668 -2.473379 24.756319 0.449192 -2.463016 20.668376 0.058969 -0.905462 7.451558 0.000000 -0.000001 -0.000001 1.748965 -4.779001 32.330823 1.026847 -3.641742 31.483822 0.148468 -1.422256 11.758649 -0.000001 0.000001 -0.000006 5.197628 -7.448118 51.870854 1.221951 -3.942012 34.433354 0.441721 -2.438916 20.461473 -0.000001 -0.000000 -0.000003 2.707951 -5.547627 57.882493 0.517565 -2.636976 22.205054 -0.000001 -0.000001 0.000002 0.000006 0.000001 0.000002 -68.132216 6.428149 -2.594369 88.957934 3.941674 0.555130 -14.115572 -1.949097 4.002013 0.000002 0.000004 0.000004 -0.000000 -0.000005 0.000001 -9.567078 -4.835700 -22.052143 100.798648 -2.715666 4.757459 -48.908017 -11.658502 2.920096 -18.532899 0.000009 0.000002 -0.000000 -0.000001 -0.000001 
